<?xml version="1.0" standalone="no"?>
<!DOCTYPE svg PUBLIC "-//W3C//DTD SVG 20010904//EN"
 "http://www.w3.org/TR/2001/REC-SVG-20010904/DTD/svg10.dtd">
<svg version="1.0" xmlns="http://www.w3.org/2000/svg"
 width="384.000000pt" height="439.000000pt" viewBox="0 0 384.000000 439.000000"
 preserveAspectRatio="xMidYMid meet">

<g transform="translate(0.000000,439.000000) scale(0.100000,-0.100000)"
fill="#000000" stroke="none">
<path d="M385 4376 c-36 -16 -81 -59 -103 -101 -16 -28 -17 -183 -20 -1937
l-2 -1908 -84 0 c-169 0 -176 -9 -176 -250 l0 -180 1920 0 1920 0 0 180 c0
241 -7 250 -176 250 l-84 0 0 1878 c-1 1032 -5 1896 -9 1919 -10 53 -43 102
-89 134 l-36 24 -1515 2 c-1242 2 -1521 0 -1546 -11z m1872 -416 l893 0 0
-1760 0 -1760 -475 0 -475 0 0 295 c0 321 -3 339 -55 363 -36 17 -414 17 -450
0 -52 -24 -55 -42 -55 -363 l0 -295 -477 0 -476 0 6 818 c4 449 7 1244 7 1766
l0 949 332 -6 c182 -4 733 -7 1225 -7z"/>
<path d="M1127 3546 c-35 -33 -39 -62 -35 -284 l3 -194 33 -29 32 -29 211 0
c295 0 289 -6 289 287 0 191 -11 241 -56 262 -16 7 -100 11 -238 11 -211 0
-213 0 -239 -24z"/>
<path d="M2233 3558 c-42 -20 -53 -74 -53 -261 0 -200 8 -240 53 -267 29 -18
52 -20 239 -20 l208 0 32 29 33 29 3 194 c4 223 1 246 -35 282 l-26 26 -216
-1 c-130 0 -225 -5 -238 -11z"/>
<path d="M1128 2721 l-33 -29 0 -222 0 -222 33 -29 32 -29 208 0 c296 0 292
-4 292 280 0 183 -8 229 -47 260 -24 19 -39 20 -239 20 l-214 0 -32 -29z"/>
<path d="M2227 2730 c-39 -31 -47 -77 -47 -260 0 -187 8 -230 49 -260 27 -19
44 -20 240 -20 l211 0 32 29 33 29 3 206 c3 225 -3 262 -54 285 -16 7 -99 11
-233 11 -195 0 -210 -1 -234 -20z"/>
<path d="M1143 1918 c-45 -22 -53 -61 -53 -266 0 -208 7 -245 51 -267 36 -19
423 -22 463 -4 48 22 58 74 54 286 -3 206 -10 233 -64 253 -35 14 -423 11
-451 -2z"/>
<path d="M2243 1920 c-51 -21 -58 -50 -61 -253 -4 -212 6 -264 54 -286 40 -18
427 -15 464 4 45 23 52 64 48 288 l-3 199 -33 29 -32 29 -208 -1 c-114 0 -217
-4 -229 -9z"/>
</g>
</svg>
