<?xml version="1.0" standalone="no"?>
<!DOCTYPE svg PUBLIC "-//W3C//DTD SVG 20010904//EN"
 "http://www.w3.org/TR/2001/REC-SVG-20010904/DTD/svg10.dtd">
<svg version="1.0" xmlns="http://www.w3.org/2000/svg"
 width="438.000000pt" height="384.000000pt" viewBox="0 0 438.000000 384.000000"
 preserveAspectRatio="xMidYMid meet">

<g transform="translate(0.000000,384.000000) scale(0.100000,-0.100000)"
fill="#000000" stroke="none">
<path d="M120 3819 c-56 -25 -77 -44 -101 -91 -18 -36 -19 -90 -19 -1809 0
-1771 0 -1773 21 -1815 13 -27 37 -54 66 -73 l46 -31 2051 0 2050 0 44 21 c29
15 54 37 73 67 l29 46 0 1371 0 1371 -29 47 c-32 49 -79 79 -142 91 -86 15
-106 4 -730 -394 l-594 -379 -5 317 -5 317 -27 47 c-54 91 -187 121 -293 65
-27 -14 -302 -187 -610 -385 l-560 -358 -5 721 -5 720 -22 42 c-25 47 -71 84
-122 102 -24 8 -190 11 -550 11 -497 0 -518 -1 -561 -21z m830 -1200 c0 -536
3 -804 11 -833 13 -54 57 -108 105 -131 51 -24 148 -24 194 0 19 10 295 183
612 386 l577 367 3 -306 c3 -296 4 -309 26 -353 27 -55 78 -94 143 -108 47
-11 110 -6 144 12 11 6 279 175 595 377 316 201 581 370 587 374 10 6 13 -195
13 -988 l0 -996 -1770 0 -1770 0 0 1495 0 1495 265 0 265 0 0 -791z"/>
<path d="M870 1368 c-51 -27 -60 -65 -60 -271 0 -291 -3 -287 285 -287 293 0
288 -5 283 300 l-3 210 -28 27 -27 28 -213 3 c-157 2 -218 -1 -237 -10z"/>
<path d="M1958 1363 c-14 -9 -31 -27 -37 -40 -7 -15 -11 -105 -11 -233 l0
-210 29 -32 29 -33 222 0 222 0 29 33 29 32 0 218 c-1 296 14 282 -282 282
-171 0 -207 -3 -230 -17z"/>
<path d="M3065 1371 c-11 -5 -29 -19 -40 -31 -18 -20 -20 -39 -23 -230 -5
-305 -10 -300 283 -300 288 0 285 -4 285 287 0 206 -9 245 -60 270 -29 15
-411 17 -445 4z"/>
</g>
</svg>
