<?xml version="1.0" standalone="no"?>
<!DOCTYPE svg PUBLIC "-//W3C//DTD SVG 20010904//EN"
 "http://www.w3.org/TR/2001/REC-SVG-20010904/DTD/svg10.dtd">
<svg version="1.0" xmlns="http://www.w3.org/2000/svg"
 width="492.000000pt" height="437.000000pt" viewBox="0 0 492.000000 437.000000"
 preserveAspectRatio="xMidYMid meet">

<g transform="translate(0.000000,437.000000) scale(0.100000,-0.100000)"
fill="#000000" stroke="none">
<path d="M2292 4341 c-29 -16 -99 -71 -155 -122 -56 -50 -557 -500 -1113 -999
-556 -500 -1014 -916 -1018 -925 -3 -9 -6 -45 -6 -80 0 -64 0 -64 61 -135 34
-39 74 -77 90 -85 32 -17 106 -20 141 -6 13 6 73 55 133 109 l110 100 5 -977
5 -976 33 -68 c24 -48 48 -79 83 -106 97 -78 -62 -72 1814 -69 l1680 3 43 23
c61 33 120 95 151 161 l26 56 5 977 5 976 110 -100 c61 -54 120 -103 133 -109
35 -14 109 -11 141 6 16 8 56 46 90 85 l61 71 0 67 c0 44 -5 75 -15 89 -8 12
-130 124 -270 249 l-255 226 -2 597 -3 597 -28 43 c-20 29 -44 50 -80 67 l-52
24 -456 0 -455 0 -53 -26 c-61 -31 -100 -82 -108 -143 l-6 -40 -141 127 c-387
350 -375 342 -538 342 -106 0 -116 -2 -166 -29z m240 -479 c35 -32 370 -334
746 -671 l682 -613 0 -1079 0 -1079 -1500 0 -1500 0 0 1079 0 1079 678 609
c819 737 814 733 824 733 4 0 36 -26 70 -58z m1428 -438 l0 -255 -23 18 c-13
10 -103 89 -200 176 l-177 159 0 79 0 79 200 0 200 0 0 -256z"/>
<path d="M1973 2720 c-71 -43 -68 -23 -68 -536 0 -452 0 -463 21 -491 46 -63
44 -63 534 -63 490 0 488 0 534 63 21 28 21 39 21 491 0 513 3 493 -68 536
-30 19 -54 20 -487 20 -433 0 -457 -1 -487 -20z"/>
</g>
</svg>
