<?xml version="1.0" standalone="no"?>
<!DOCTYPE svg PUBLIC "-//W3C//DTD SVG 20010904//EN"
 "http://www.w3.org/TR/2001/REC-SVG-20010904/DTD/svg10.dtd">
<svg version="1.0" xmlns="http://www.w3.org/2000/svg"
 width="494.000000pt" height="309.000000pt" viewBox="0 0 494.000000 309.000000"
 preserveAspectRatio="xMidYMid meet">

<g transform="translate(0.000000,309.000000) scale(0.100000,-0.100000)"
fill="#000000" stroke="none">
<path d="M0 1570 l0 -1520 788 0 c453 0 824 4 873 10 199 23 410 95 546 188
90 61 214 199 256 285 120 244 120 581 -1 827 -52 108 -178 232 -287 287 -44
21 -96 45 -114 51 l-35 12 65 38 c35 20 98 71 140 113 130 129 181 267 180
489 0 122 -19 238 -52 323 -66 168 -225 302 -433 366 -160 49 -194 51 -1088
51 l-838 0 0 -1520z m1522 962 c142 -47 210 -138 216 -288 7 -146 -40 -246
-140 -303 -96 -55 -148 -61 -552 -61 l-366 0 0 341 0 340 388 -3 c368 -4 390
-5 454 -26z m63 -1156 c82 -24 134 -56 187 -115 100 -110 123 -335 49 -478
-25 -50 -85 -105 -152 -138 -97 -50 -150 -55 -586 -55 l-403 0 0 406 0 405
423 -4 c364 -3 430 -6 482 -21z"/>
<path d="M3210 2780 l0 -160 625 0 625 0 0 160 0 160 -625 0 -625 0 0 -160z"/>
<path d="M3639 2305 c-227 -43 -407 -133 -557 -279 -257 -249 -376 -595 -342
-995 14 -154 29 -230 73 -352 123 -345 398 -580 766 -655 95 -20 147 -24 287
-24 252 0 389 29 561 120 151 79 257 183 353 346 48 82 120 244 120 271 0 10
-55 13 -275 13 l-275 0 -21 -44 c-47 -101 -181 -194 -325 -226 -69 -16 -219
-13 -287 5 -208 54 -333 210 -356 443 l-7 72 795 0 794 0 -6 178 c-9 255 -47
407 -152 612 -130 251 -329 412 -610 496 -81 24 -109 27 -275 30 -131 2 -207
-1 -261 -11z m336 -470 c182 -43 302 -182 330 -383 l7 -52 -476 0 -476 0 0 23
c0 35 29 125 60 187 34 68 132 163 197 191 112 48 246 61 358 34z"/>
</g>
</svg>
