<?xml version="1.0" encoding="utf-8"?>
<!-- Svg Vector Icons : http://www.onlinewebfonts.com/icon -->
<!DOCTYPE svg PUBLIC "-//W3C//DTD SVG 1.1//EN" "http://www.w3.org/Graphics/SVG/1.1/DTD/svg11.dtd">
<svg version="1.1" xmlns="http://www.w3.org/2000/svg" xmlns:xlink="http://www.w3.org/1999/xlink" x="0px" y="0px" viewBox="0 0 1000 1000" enable-background="new 0 0 1000 1000" xml:space="preserve">
<metadata> Svg Vector Icons : http://www.onlinewebfonts.com/icon </metadata>
<g><path d="M894.3,233.5H649.8v59.3h244.5V233.5z M773.7,437.3c-28.7,0-52,8.4-69.9,25.1c-17.9,16.7-27.8,39.5-29.7,68.2h195.2C863.7,468.4,831.8,437.3,773.7,437.3z M781.4,717.2c20.1,0,39.6-5.1,58.4-15.3c18.8-10.2,30.9-24.1,36.4-41.6h105.8c-31.9,97.9-100,146.9-204.3,146.9c-68.3,0-122.6-21.1-162.9-63.2s-60.5-97.5-60.5-166c0-66.4,20.8-121.5,62.4-165.3c41.6-43.9,95.3-65.8,161-65.8c44,0,82.4,10.8,115.1,32.5c32.7,21.7,57.1,50.2,73.2,85.7c16.1,35.4,24.2,75,24.2,118.7c0,5.4-0.3,12.9-1,22.5H674.2c0,35.4,9.2,62.8,27.5,82.1C720,707.6,746.6,717.2,781.4,717.2L781.4,717.2z M142.5,693.3h141.6c65.4,0,98.1-26.6,98.1-79.9c0-57.4-31.7-86.1-95.2-86.1H142.5V693.3L142.5,693.3z M142.5,436.4H277c24.9,0,44.6-5.8,59.1-17.5c14.5-11.6,21.8-29.7,21.8-54.3c0-45.9-30.3-68.9-90.9-68.9H142.5V436.4L142.5,436.4z M10,192.8h284.2c27.8,0,52.5,2.2,74.2,6.7c21.7,4.5,41.9,12,60.5,22.7s33,26.1,43.1,46.2s15.1,44.7,15.1,73.7c0,57.7-27.4,99.7-82.3,125.8c36.4,10.2,63.8,28.6,82.3,55c18.5,26.5,27.8,59,27.8,97.6c0,23.9-3.9,45.7-11.7,65.3c-7.8,19.6-18.3,36.1-31.6,49.5s-29,24.7-47.1,34c-18.2,9.3-37.5,16-57.9,20.1c-20.4,4.1-41.8,6.2-64.1,6.2H10V192.8L10,192.8z"/></g>
</svg>