<?xml version="1.0" standalone="no"?>
<!DOCTYPE svg PUBLIC "-//W3C//DTD SVG 20010904//EN"
 "http://www.w3.org/TR/2001/REC-SVG-20010904/DTD/svg10.dtd">
<svg version="1.0" xmlns="http://www.w3.org/2000/svg"
 width="384.000000pt" height="384.000000pt" viewBox="0 0 384.000000 384.000000"
 preserveAspectRatio="xMidYMid meet">

<g transform="translate(0.000000,384.000000) scale(0.100000,-0.100000)"
fill="#000000" stroke="none">
<path d="M1185 3831 c-200 -10 -253 -16 -385 -48 -386 -93 -662 -376 -754
-775 -38 -164 -41 -253 -41 -1098 0 -882 2 -920 51 -1120 49 -196 131 -341
274 -480 100 -98 211 -168 345 -218 227 -86 370 -95 1379 -89 726 4 777 6 881
25 330 62 564 211 720 456 116 183 159 352 176 691 16 320 6 1569 -15 1705
-30 210 -79 347 -169 482 -178 267 -445 417 -812 458 -119 14 -1411 22 -1650
11z m1470 -361 c330 -26 476 -80 614 -226 83 -87 122 -154 154 -264 49 -169
52 -226 52 -1075 0 -703 -2 -801 -17 -894 -36 -213 -85 -318 -203 -436 -192
-192 -387 -224 -1350 -224 -927 0 -1130 34 -1316 221 -146 147 -194 281 -219
608 -15 201 -8 1487 9 1605 34 236 84 352 205 470 140 139 272 187 576 214
135 12 1351 13 1495 1z"/>
<path d="M2885 3171 c-135 -33 -205 -167 -164 -314 31 -112 168 -179 292 -143
70 20 109 53 141 118 92 184 -70 387 -269 339z"/>
<path d="M1785 2899 c-250 -32 -497 -173 -649 -372 -233 -307 -270 -729 -94
-1068 111 -216 284 -372 513 -462 136 -54 242 -70 410 -64 205 8 361 58 519
167 202 140 347 354 402 595 26 109 26 328 1 444 -73 336 -328 615 -657 719
-149 47 -291 60 -445 41z m330 -387 c190 -62 347 -223 408 -417 33 -106 30
-262 -7 -369 -38 -111 -69 -160 -161 -251 -60 -60 -99 -90 -156 -118 -258
-127 -554 -67 -749 150 -92 103 -159 274 -160 406 0 134 62 298 153 405 172
202 425 275 672 194z"/>
</g>
</svg>
