<?xml version="1.0" standalone="no"?>
<!DOCTYPE svg PUBLIC "-//W3C//DTD SVG 20010904//EN"
 "http://www.w3.org/TR/2001/REC-SVG-20010904/DTD/svg10.dtd">
<svg version="1.0" xmlns="http://www.w3.org/2000/svg"
 width="274.000000pt" height="341.000000pt" viewBox="0 0 274.000000 341.000000"
 preserveAspectRatio="xMidYMid meet">

<g transform="translate(0.000000,341.000000) scale(0.100000,-0.100000)"
fill="#000000" stroke="none">
<path d="M1249 3381 c-71 -46 -1215 -1199 -1234 -1243 -21 -53 -20 -150 4
-196 27 -52 248 -268 293 -287 48 -19 128 -19 176 0 25 11 171 149 460 438
l422 422 423 -422 c288 -289 434 -427 459 -438 52 -21 133 -19 183 5 53 25
270 245 290 293 17 42 20 133 4 174 -11 32 -1219 1246 -1261 1269 -16 8 -56
14 -101 14 -64 0 -79 -4 -118 -29z"/>
<path d="M1310 1768 c-42 -9 -85 -50 -658 -621 -340 -339 -622 -629 -633 -649
-24 -47 -26 -146 -3 -191 22 -44 241 -264 286 -288 47 -24 146 -26 191 -3 18
9 222 206 455 437 l422 422 423 -422 c288 -289 434 -427 459 -438 48 -19 128
-19 176 0 45 19 266 235 293 287 24 46 25 140 3 194 -19 49 -1200 1232 -1254
1256 -49 22 -107 28 -160 16z"/>
</g>
</svg>
