<?xml version="1.0" standalone="no"?>
<!DOCTYPE svg PUBLIC "-//W3C//DTD SVG 20010904//EN"
 "http://www.w3.org/TR/2001/REC-SVG-20010904/DTD/svg10.dtd">
<svg version="1.0" xmlns="http://www.w3.org/2000/svg"
 width="468.000000pt" height="329.000000pt" viewBox="0 0 468.000000 329.000000"
 preserveAspectRatio="xMidYMid meet">

<g transform="translate(0.000000,329.000000) scale(0.100000,-0.100000)"
fill="#000000" stroke="none">
<path d="M1570 3284 c-245 -7 -586 -26 -735 -40 -344 -33 -455 -71 -586 -204
-121 -122 -162 -228 -199 -515 -36 -286 -45 -460 -44 -890 0 -653 42 -1054
130 -1233 65 -132 202 -252 339 -295 124 -39 358 -64 850 -89 321 -16 1709
-16 2030 0 492 25 726 50 850 89 137 43 274 163 339 295 88 181 130 581 130
1243 0 438 -7 586 -44 880 -37 288 -78 395 -199 516 -157 157 -303 192 -946
230 -174 10 -1671 20 -1915 13z m953 -1334 c295 -168 533 -308 529 -311 -8 -8
-1173 -669 -1179 -669 -1 0 -3 304 -3 676 l0 675 58 -33 c32 -18 300 -170 595
-338z"/>
</g>
</svg>
