<?xml version="1.0" standalone="no"?>
<!DOCTYPE svg PUBLIC "-//W3C//DTD SVG 20010904//EN"
 "http://www.w3.org/TR/2001/REC-SVG-20010904/DTD/svg10.dtd">
<svg version="1.0" xmlns="http://www.w3.org/2000/svg"
 width="383.000000pt" height="383.000000pt" viewBox="0 0 383.000000 383.000000"
 preserveAspectRatio="xMidYMid meet">

<g transform="translate(0.000000,383.000000) scale(0.100000,-0.100000)"
fill="#000000" stroke="none">
<path d="M1690 3819 c-427 -52 -796 -227 -1109 -524 -397 -378 -617 -955 -572
-1503 21 -270 78 -483 188 -711 l55 -114 -126 -459 c-69 -252 -126 -469 -126
-483 0 -21 5 -25 32 -25 17 0 242 55 499 121 l466 122 109 -51 c283 -130 534
-179 868 -169 208 6 319 23 484 73 616 186 1090 646 1286 1249 80 248 108 573
71 834 -116 815 -759 1479 -1570 1622 -137 24 -432 34 -555 18z m545 -363
c460 -102 826 -382 1070 -815 124 -222 188 -462 187 -710 0 -438 -171 -831
-495 -1136 -219 -207 -485 -347 -768 -405 -374 -77 -753 -19 -1081 165 l-98
55 -286 -75 c-158 -42 -289 -74 -291 -72 -2 2 31 130 73 284 l76 281 -45 74
c-177 292 -259 628 -229 944 34 353 163 653 390 910 254 286 575 461 956 519
139 22 401 12 541 -19z"/>
<path d="M1165 2791 c-82 -37 -188 -186 -214 -301 -19 -80 -13 -240 10 -316
33 -108 91 -221 164 -324 256 -359 517 -589 820 -723 317 -140 520 -162 700
-73 154 76 214 160 231 324 12 108 19 101 -213 214 -210 102 -273 122 -304 96
-9 -7 -51 -57 -94 -111 -112 -141 -107 -140 -212 -87 -232 118 -375 230 -497
390 -44 57 -116 170 -116 182 0 4 23 33 51 65 65 74 109 150 109 189 0 30
-131 362 -172 436 -13 22 -33 41 -51 48 -49 17 -167 12 -212 -9z"/>
</g>
</svg>
